#N canvas 2418 226 693 623 10;
#X obj 49 20 inlet;
#X obj 49 65 * 127;
#X obj 49 109 int \$1;
#X msg 49 156 \$1 \$2;
#X obj 114 64 outlet;
#X obj 49 43 change;
#X obj 49 180 s data;
#X obj 49 87 t b f;
#X obj 49 132 pack f f;
#X connect 0 0 5 0;
#X connect 1 0 7 0;
#X connect 2 0 8 0;
#X connect 3 0 6 0;
#X connect 5 0 1 0;
#X connect 5 0 4 0;
#X connect 7 0 2 0;
#X connect 7 1 8 1;
#X connect 8 0 3 0;
