#N canvas 2726 106 807 944 10;
#X obj 49 13 inlet;
#X obj 144 354 outlet;
#X obj 34 196 / 255;
#X obj 69 79 +;
#X floatatom 69 98 5 0 0 0 - - -, f 5;
#X obj 69 118 select 2;
#X obj 68 138 bang;
#X msg 68 160 0.5;
#X obj 34 174 i;
#X obj 34 150 bang;
#X obj 119 57 < 136;
#X obj 69 58 > 119;
#X obj 68 293 * 127;
#X obj 68 383 int \$1;
#X msg 68 430 \$1 \$2;
#X obj 68 336 change;
#X obj 68 226 - 1;
#X obj 68 248 * -1;
#X obj 68 270 abs;
#X obj 68 454 s data;
#X obj 68 406 pack f f;
#X obj 68 315 i;
#X obj 68 359 t b f;
#X obj 49 35 t f f f;
#X connect 0 0 23 0;
#X connect 2 0 16 0;
#X connect 3 0 4 0;
#X connect 4 0 5 0;
#X connect 5 0 6 0;
#X connect 5 1 9 0;
#X connect 6 0 7 0;
#X connect 7 0 16 0;
#X connect 8 0 2 0;
#X connect 9 0 8 0;
#X connect 10 0 3 1;
#X connect 11 0 3 0;
#X connect 12 0 21 0;
#X connect 13 0 20 0;
#X connect 14 0 19 0;
#X connect 15 0 1 0;
#X connect 15 0 22 0;
#X connect 16 0 17 0;
#X connect 17 0 18 0;
#X connect 18 0 12 0;
#X connect 20 0 14 0;
#X connect 21 0 15 0;
#X connect 22 0 13 0;
#X connect 22 1 20 1;
#X connect 23 0 8 1;
#X connect 23 1 11 0;
#X connect 23 2 10 0;
