#N canvas 2306 575 450 389 10;
#X obj 49 18 inlet;
#X obj 49 62 / 255;
#X obj 49 40 i;
#X obj 49 85 * 127;
#X obj 49 130 change;
#X obj 49 178 int \$1;
#X msg 49 225 \$1 \$2;
#X obj 114 129 outlet;
#X obj 49 249 s data;
#X obj 49 154 t b f;
#X obj 49 201 pack f f;
#X obj 49 108 i;
#X connect 0 0 2 0;
#X connect 1 0 3 0;
#X connect 2 0 1 0;
#X connect 3 0 11 0;
#X connect 4 0 7 0;
#X connect 4 0 9 0;
#X connect 5 0 10 0;
#X connect 6 0 8 0;
#X connect 9 0 5 0;
#X connect 9 1 10 1;
#X connect 10 0 6 0;
#X connect 11 0 4 0;
